<mxfile host="Electron" modified="2024-02-01T13:51:50.522Z" agent="Mozilla/5.0 (Macintosh; Intel Mac OS X 10_15_7) AppleWebKit/537.36 (KHTML, like Gecko) draw.io/22.1.2 Chrome/114.0.5735.289 Electron/25.9.4 Safari/537.36" etag="3CRZiU_QEzoDdsAXWDkn" version="22.1.2" type="device">
  <diagram name="Page-1" id="KyOmxgfLX46Z6CGr15BP">
    <mxGraphModel dx="954" dy="597" grid="1" gridSize="10" guides="1" tooltips="1" connect="1" arrows="1" fold="1" page="1" pageScale="1" pageWidth="1169" pageHeight="827" math="0" shadow="0">
      <root>
        <mxCell id="0" />
        <mxCell id="1" parent="0" />
        <mxCell id="Ab0KmTDvwE4MWJgtxBsP-3" style="edgeStyle=orthogonalEdgeStyle;rounded=0;orthogonalLoop=1;jettySize=auto;html=1;" parent="1" source="Ab0KmTDvwE4MWJgtxBsP-1" target="Ab0KmTDvwE4MWJgtxBsP-2" edge="1">
          <mxGeometry relative="1" as="geometry" />
        </mxCell>
        <mxCell id="Ab0KmTDvwE4MWJgtxBsP-1" value="A" style="ellipse;whiteSpace=wrap;html=1;aspect=fixed;" parent="1" vertex="1">
          <mxGeometry x="440" y="110" width="60" height="60" as="geometry" />
        </mxCell>
        <mxCell id="Ab0KmTDvwE4MWJgtxBsP-6" style="rounded=0;orthogonalLoop=1;jettySize=auto;html=1;exitX=1;exitY=1;exitDx=0;exitDy=0;entryX=0;entryY=0;entryDx=0;entryDy=0;" parent="1" source="Ab0KmTDvwE4MWJgtxBsP-2" target="Ab0KmTDvwE4MWJgtxBsP-5" edge="1">
          <mxGeometry relative="1" as="geometry" />
        </mxCell>
        <mxCell id="Ab0KmTDvwE4MWJgtxBsP-21" style="rounded=0;orthogonalLoop=1;jettySize=auto;html=1;" parent="1" source="Ab0KmTDvwE4MWJgtxBsP-2" target="Ab0KmTDvwE4MWJgtxBsP-19" edge="1">
          <mxGeometry relative="1" as="geometry" />
        </mxCell>
        <mxCell id="Ab0KmTDvwE4MWJgtxBsP-2" value="B" style="ellipse;whiteSpace=wrap;html=1;aspect=fixed;" parent="1" vertex="1">
          <mxGeometry x="440" y="200" width="60" height="60" as="geometry" />
        </mxCell>
        <mxCell id="Ab0KmTDvwE4MWJgtxBsP-4" value="&lt;div style=&quot;color: rgb(234, 242, 241); background-color: rgb(40, 42, 58); font-family: Menlo, Monaco, &amp;quot;Courier New&amp;quot;, monospace; line-height: 18px;&quot;&gt;if &lt;span style=&quot;color: #888d94;&quot;&gt;(&lt;/span&gt;x &lt;span style=&quot;color: #ff657a;&quot;&gt;==&lt;/span&gt; &lt;span style=&quot;color: #c39ac9;&quot;&gt;1&lt;/span&gt; &lt;span style=&quot;color: #888d94;&quot;&gt;)&lt;/span&gt;&lt;/div&gt;" style="text;html=1;align=center;verticalAlign=middle;resizable=0;points=[];autosize=1;strokeColor=none;fillColor=none;" parent="1" vertex="1">
          <mxGeometry x="495" y="215" width="110" height="30" as="geometry" />
        </mxCell>
        <mxCell id="Ab0KmTDvwE4MWJgtxBsP-10" style="rounded=0;orthogonalLoop=1;jettySize=auto;html=1;exitX=1;exitY=1;exitDx=0;exitDy=0;entryX=0;entryY=0;entryDx=0;entryDy=0;" parent="1" source="Ab0KmTDvwE4MWJgtxBsP-5" target="Ab0KmTDvwE4MWJgtxBsP-8" edge="1">
          <mxGeometry relative="1" as="geometry" />
        </mxCell>
        <mxCell id="Ab0KmTDvwE4MWJgtxBsP-20" style="rounded=0;orthogonalLoop=1;jettySize=auto;html=1;exitX=0;exitY=1;exitDx=0;exitDy=0;entryX=1;entryY=0;entryDx=0;entryDy=0;" parent="1" source="Ab0KmTDvwE4MWJgtxBsP-5" target="Ab0KmTDvwE4MWJgtxBsP-19" edge="1">
          <mxGeometry relative="1" as="geometry" />
        </mxCell>
        <mxCell id="Ab0KmTDvwE4MWJgtxBsP-5" value="C" style="ellipse;whiteSpace=wrap;html=1;aspect=fixed;" parent="1" vertex="1">
          <mxGeometry x="560" y="280" width="60" height="60" as="geometry" />
        </mxCell>
        <mxCell id="Ab0KmTDvwE4MWJgtxBsP-7" value="&lt;div style=&quot;color: rgb(234, 242, 241); background-color: rgb(40, 42, 58); font-family: Menlo, Monaco, &amp;quot;Courier New&amp;quot;, monospace; font-weight: normal; font-size: 12px; line-height: 18px;&quot;&gt;&lt;div&gt;&lt;span style=&quot;color: #ff657a;&quot;&gt;if&lt;/span&gt;&lt;span style=&quot;color: #eaf2f1;&quot;&gt; &lt;/span&gt;&lt;span style=&quot;color: #888d94;&quot;&gt;(&lt;/span&gt;&lt;span style=&quot;color: #eaf2f1;&quot;&gt;y &lt;/span&gt;&lt;span style=&quot;color: #ff657a;&quot;&gt;==&lt;/span&gt;&lt;span style=&quot;color: #eaf2f1;&quot;&gt; &lt;/span&gt;&lt;span style=&quot;color: #c39ac9;&quot;&gt;0&lt;/span&gt;&lt;span style=&quot;color: #888d94;&quot;&gt;)&lt;/span&gt;&lt;/div&gt;&lt;/div&gt;" style="text;whiteSpace=wrap;html=1;" parent="1" vertex="1">
          <mxGeometry x="630" y="300" width="120" height="40" as="geometry" />
        </mxCell>
        <mxCell id="Ab0KmTDvwE4MWJgtxBsP-13" style="rounded=0;orthogonalLoop=1;jettySize=auto;html=1;exitX=1;exitY=1;exitDx=0;exitDy=0;entryX=0;entryY=0;entryDx=0;entryDy=0;" parent="1" source="Ab0KmTDvwE4MWJgtxBsP-8" target="Ab0KmTDvwE4MWJgtxBsP-12" edge="1">
          <mxGeometry relative="1" as="geometry" />
        </mxCell>
        <mxCell id="Ab0KmTDvwE4MWJgtxBsP-17" style="rounded=0;orthogonalLoop=1;jettySize=auto;html=1;exitX=0;exitY=1;exitDx=0;exitDy=0;entryX=0.5;entryY=0;entryDx=0;entryDy=0;" parent="1" source="Ab0KmTDvwE4MWJgtxBsP-8" target="Ab0KmTDvwE4MWJgtxBsP-16" edge="1">
          <mxGeometry relative="1" as="geometry" />
        </mxCell>
        <mxCell id="Ab0KmTDvwE4MWJgtxBsP-8" value="E" style="ellipse;whiteSpace=wrap;html=1;aspect=fixed;" parent="1" vertex="1">
          <mxGeometry x="685" y="340" width="60" height="60" as="geometry" />
        </mxCell>
        <mxCell id="Ab0KmTDvwE4MWJgtxBsP-9" value="&lt;div style=&quot;color: rgb(234, 242, 241); background-color: rgb(40, 42, 58); font-family: Menlo, Monaco, &amp;quot;Courier New&amp;quot;, monospace; font-weight: normal; font-size: 12px; line-height: 18px;&quot;&gt;&lt;div&gt;&lt;span style=&quot;color: #eaf2f1;&quot;&gt; &lt;/span&gt;&lt;span style=&quot;color: #ff657a;&quot;&gt;if&lt;/span&gt;&lt;span style=&quot;color: #eaf2f1;&quot;&gt; &lt;/span&gt;&lt;span style=&quot;color: #888d94;&quot;&gt;(&lt;/span&gt;&lt;span style=&quot;color: #eaf2f1;&quot;&gt;z &lt;/span&gt;&lt;span style=&quot;color: #ff657a;&quot;&gt;==&lt;/span&gt;&lt;span style=&quot;color: #eaf2f1;&quot;&gt; &lt;/span&gt;&lt;span style=&quot;color: #c39ac9;&quot;&gt;1&lt;/span&gt;&lt;span style=&quot;color: #888d94;&quot;&gt;)&lt;/span&gt;&lt;/div&gt;&lt;/div&gt;" style="text;whiteSpace=wrap;html=1;" parent="1" vertex="1">
          <mxGeometry x="765" y="380" width="120" height="40" as="geometry" />
        </mxCell>
        <mxCell id="HEQ-lfg1Dq5On43kvN6d-7" style="rounded=0;orthogonalLoop=1;jettySize=auto;html=1;exitX=0;exitY=1;exitDx=0;exitDy=0;entryX=1;entryY=0;entryDx=0;entryDy=0;" edge="1" parent="1" source="Ab0KmTDvwE4MWJgtxBsP-12" target="HEQ-lfg1Dq5On43kvN6d-2">
          <mxGeometry relative="1" as="geometry" />
        </mxCell>
        <mxCell id="Ab0KmTDvwE4MWJgtxBsP-12" value="F" style="ellipse;whiteSpace=wrap;html=1;aspect=fixed;" parent="1" vertex="1">
          <mxGeometry x="740" y="470" width="60" height="60" as="geometry" />
        </mxCell>
        <mxCell id="Ab0KmTDvwE4MWJgtxBsP-15" value="&lt;div style=&quot;color: rgb(234, 242, 241); background-color: rgb(40, 42, 58); font-family: Menlo, Monaco, &amp;quot;Courier New&amp;quot;, monospace; line-height: 18px;&quot;&gt; print&lt;span style=&quot;color: #888d94;&quot;&gt;(&lt;/span&gt;&lt;span style=&quot;color: #888d94;&quot;&gt;&quot;&lt;/span&gt;&lt;span style=&quot;color: #ffd76d;&quot;&gt;cas 1&lt;/span&gt;&lt;span style=&quot;color: #888d94;&quot;&gt;&quot;&lt;/span&gt;&lt;span style=&quot;color: #888d94;&quot;&gt;)&lt;/span&gt;&lt;/div&gt;" style="text;html=1;align=center;verticalAlign=middle;resizable=0;points=[];autosize=1;strokeColor=none;fillColor=none;" parent="1" vertex="1">
          <mxGeometry x="800" y="470" width="120" height="30" as="geometry" />
        </mxCell>
        <mxCell id="HEQ-lfg1Dq5On43kvN6d-6" style="rounded=0;orthogonalLoop=1;jettySize=auto;html=1;exitX=0;exitY=1;exitDx=0;exitDy=0;entryX=0.5;entryY=0;entryDx=0;entryDy=0;" edge="1" parent="1" source="Ab0KmTDvwE4MWJgtxBsP-16" target="HEQ-lfg1Dq5On43kvN6d-2">
          <mxGeometry relative="1" as="geometry" />
        </mxCell>
        <mxCell id="Ab0KmTDvwE4MWJgtxBsP-16" value="G" style="ellipse;whiteSpace=wrap;html=1;aspect=fixed;" parent="1" vertex="1">
          <mxGeometry x="620" y="440" width="60" height="60" as="geometry" />
        </mxCell>
        <mxCell id="Ab0KmTDvwE4MWJgtxBsP-18" value="&lt;div style=&quot;color: rgb(234, 242, 241); background-color: rgb(40, 42, 58); font-family: Menlo, Monaco, &amp;quot;Courier New&amp;quot;, monospace; line-height: 18px;&quot;&gt;print&lt;span style=&quot;color: #888d94;&quot;&gt;(&lt;/span&gt;&lt;span style=&quot;color: #888d94;&quot;&gt;&quot;&lt;/span&gt;&lt;span style=&quot;color: #ffd76d;&quot;&gt;cas 2&lt;/span&gt;&lt;span style=&quot;color: #888d94;&quot;&gt;&quot;&lt;/span&gt;&lt;span style=&quot;color: #888d94;&quot;&gt;)&lt;/span&gt;&lt;/div&gt;" style="text;html=1;align=center;verticalAlign=middle;resizable=0;points=[];autosize=1;strokeColor=none;fillColor=none;" parent="1" vertex="1">
          <mxGeometry x="545" y="400" width="120" height="30" as="geometry" />
        </mxCell>
        <mxCell id="HEQ-lfg1Dq5On43kvN6d-5" style="rounded=0;orthogonalLoop=1;jettySize=auto;html=1;exitX=0.5;exitY=1;exitDx=0;exitDy=0;entryX=0;entryY=0;entryDx=0;entryDy=0;" edge="1" parent="1" source="Ab0KmTDvwE4MWJgtxBsP-19" target="HEQ-lfg1Dq5On43kvN6d-2">
          <mxGeometry relative="1" as="geometry" />
        </mxCell>
        <mxCell id="Ab0KmTDvwE4MWJgtxBsP-19" value="D" style="ellipse;whiteSpace=wrap;html=1;aspect=fixed;" parent="1" vertex="1">
          <mxGeometry x="440" y="350" width="60" height="60" as="geometry" />
        </mxCell>
        <mxCell id="Ab0KmTDvwE4MWJgtxBsP-22" value="&lt;div style=&quot;color: rgb(234, 242, 241); background-color: rgb(40, 42, 58); font-family: Menlo, Monaco, &amp;quot;Courier New&amp;quot;, monospace; font-weight: normal; font-size: 12px; line-height: 18px;&quot;&gt;&lt;div&gt;&lt;span style=&quot;color: #eaf2f1;&quot;&gt; &lt;/span&gt;&lt;span style=&quot;color: #bad761;&quot;&gt;print&lt;/span&gt;&lt;span style=&quot;color: #888d94;&quot;&gt;(&lt;/span&gt;&lt;span style=&quot;color: #888d94;&quot;&gt;&quot;&lt;/span&gt;&lt;span style=&quot;color: #ffd76d;&quot;&gt;cas 3&lt;/span&gt;&lt;span style=&quot;color: #888d94;&quot;&gt;&quot;&lt;/span&gt;&lt;span style=&quot;color: #888d94;&quot;&gt;)&lt;/span&gt;&lt;/div&gt;&lt;/div&gt;" style="text;whiteSpace=wrap;html=1;" parent="1" vertex="1">
          <mxGeometry x="320" y="368" width="130" height="40" as="geometry" />
        </mxCell>
        <mxCell id="Ab0KmTDvwE4MWJgtxBsP-23" value="x != 1" style="text;html=1;align=center;verticalAlign=middle;resizable=0;points=[];autosize=1;strokeColor=none;fillColor=none;" parent="1" vertex="1">
          <mxGeometry x="420" y="300" width="50" height="30" as="geometry" />
        </mxCell>
        <mxCell id="Ab0KmTDvwE4MWJgtxBsP-24" value="y != 0" style="text;html=1;align=center;verticalAlign=middle;resizable=0;points=[];autosize=1;strokeColor=none;fillColor=none;" parent="1" vertex="1">
          <mxGeometry x="525" y="338" width="50" height="30" as="geometry" />
        </mxCell>
        <mxCell id="Ab0KmTDvwE4MWJgtxBsP-25" value="z != 1" style="text;html=1;align=center;verticalAlign=middle;resizable=0;points=[];autosize=1;strokeColor=none;fillColor=none;" parent="1" vertex="1">
          <mxGeometry x="665" y="420" width="50" height="30" as="geometry" />
        </mxCell>
        <mxCell id="HEQ-lfg1Dq5On43kvN6d-2" value="I&lt;br&gt;" style="ellipse;whiteSpace=wrap;html=1;aspect=fixed;" vertex="1" parent="1">
          <mxGeometry x="535" y="580" width="60" height="60" as="geometry" />
        </mxCell>
      </root>
    </mxGraphModel>
  </diagram>
</mxfile>
